<?xml version="1.0"?><svg fill="currentColor" xmlns="http://www.w3.org/2000/svg" viewBox="0 0 30 30">    <path d="M 15.021484 4 A 1.0001 1.0001 0 0 0 14.683594 4.0507812 L 2.6835938 8.0507812 A 1.0005645 1.0005645 0 1 0 3.3164062 9.9492188 L 15 6.0546875 L 26.683594 9.9492188 A 1.0005644 1.0005644 0 1 0 27.316406 8.0507812 L 15.316406 4.0507812 A 1.0001 1.0001 0 0 0 15.021484 4 z M 15.021484 11 A 1.0001 1.0001 0 0 0 14.683594 11.050781 L 2.6835938 15.050781 A 1.0001 1.0001 0 0 0 2.6835938 16.949219 L 14.683594 20.949219 A 1.0001 1.0001 0 0 0 15.316406 20.949219 L 26 17.388672 L 26 23.277344 C 25.404366 23.623613 25 24.261054 25 25 C 25 26.105 27 29 27 29 C 27 29 29 26.105 29 25 C 29 24.261054 28.595634 23.623613 28 23.277344 L 28 16.050781 A 1.0001 1.0001 0 0 0 28 16 A 1.0001 1.0001 0 0 0 27.996094 15.917969 A 1.0001 1.0001 0 0 0 27.996094 15.900391 A 1.0001 1.0001 0 0 0 27.990234 15.851562 A 1.0001 1.0001 0 0 0 27.988281 15.837891 A 1.0001 1.0001 0 0 0 27.970703 15.753906 A 1.0001 1.0001 0 0 0 27.169922 15.001953 L 15.316406 11.050781 A 1.0001 1.0001 0 0 0 15.021484 11 z M 8 20.828125 L 8 24 C 8 24 9.606 26 15 26 C 20.394 26 22 24 22 24 L 22 20.828125 L 15.949219 22.845703 C 15.641219 22.947703 15.32 23 15 23 C 14.68 23 14.358781 22.947703 14.050781 22.845703 L 8 20.828125 z"/></svg>